<svg xmlns="http://www.w3.org/2000/svg" version="1.1" xmlns:xlink="http://www.w3.org/1999/xlink" xmlns:svgjs="http://svgjs.dev/svgjs" width="1920" height="1080" preserveAspectRatio="none" viewBox="0 0 1920 1080"><g mask="url(&quot;#SvgjsMask1016&quot;)" fill="none"><rect width="1920" height="1080" x="0" y="0" fill="#0e2a47"></rect><path d="M0,557.229C102.84,559.12,165.557,444.3,239.756,373.067C300.374,314.872,347.74,250.217,393.324,179.625C446.84,96.75,529.286,22.468,529.854,-76.182C530.439,-177.819,458.444,-262.971,396.334,-343.425C331.086,-427.945,260.572,-510.887,162.205,-552.418C57.267,-596.724,-68.253,-631.803,-171.196,-583.04C-273.016,-534.808,-296.838,-404.065,-354.86,-307.488C-402.048,-228.944,-451.373,-156.053,-480.017,-69.016C-513.967,34.143,-590.314,150.655,-536.724,245.114C-482.125,341.352,-329.804,308.729,-234.154,364.351C-144.931,416.236,-103.195,555.331,0,557.229" fill="#0b2239"></path><path d="M1920 1612.5549999999998C2036.394 1624.464 2161.694 1672.0729999999999 2263.886 1615.098 2366.84 1557.6979999999999 2392.754 1425.4189999999999 2445.091 1319.801 2499.282 1210.442 2601.788 1104.957 2575.765 985.715 2549.683 866.203 2402.335 823.7 2317.576 735.499 2238.547 653.261 2196.896 535.698 2094.68 485.09400000000005 1984.087 430.34299999999996 1847.724 398.649 1734.016 446.597 1621.9560000000001 493.851 1590.873 634.046 1515.363 729.38 1444.095 819.3589999999999 1328.882 879.494 1302.63 991.236 1275.749 1105.653 1316.538 1226.871 1374.4569999999999 1329.141 1429.542 1426.408 1519.354 1497.533 1618.549 1549.066 1711.558 1597.385 1815.733 1601.886 1920 1612.5549999999998" fill="#113255"></path></g><defs><mask id="SvgjsMask1016"><rect width="1920" height="1080" fill="#ffffff"></rect></mask></defs></svg>